<svg id="visual" viewBox="0 0 960 540" width="960" height="540" xmlns="http://www.w3.org/2000/svg" xmlns:xlink="http://www.w3.org/1999/xlink" version="1.1"><path d="M0 136L14.5 136C29 136 58 136 87.2 134.2C116.3 132.3 145.7 128.7 174.8 117.8C204 107 233 89 262 85.5C291 82 320 93 349 112C378 131 407 158 436.2 170.5C465.3 183 494.7 181 523.8 172.8C553 164.7 582 150.3 611 136.8C640 123.3 669 110.7 698 99.8C727 89 756 80 785.2 89C814.3 98 843.7 125 872.8 128.7C902 132.3 931 112.7 945.5 102.8L960 93L960 0L945.5 0C931 0 902 0 872.8 0C843.7 0 814.3 0 785.2 0C756 0 727 0 698 0C669 0 640 0 611 0C582 0 553 0 523.8 0C494.7 0 465.3 0 436.2 0C407 0 378 0 349 0C320 0 291 0 262 0C233 0 204 0 174.8 0C145.7 0 116.3 0 87.2 0C58 0 29 0 14.5 0L0 0Z" fill="#758bac"></path><path d="M0 244L14.5 238.7C29 233.3 58 222.7 87.2 229C116.3 235.3 145.7 258.7 174.8 254.2C204 249.7 233 217.3 262 197.5C291 177.7 320 170.3 349 185.5C378 200.7 407 238.3 436.2 253.7C465.3 269 494.7 262 523.8 248.5C553 235 582 215 611 209.5C640 204 669 213 698 214.8C727 216.7 756 211.3 785.2 213.2C814.3 215 843.7 224 872.8 216C902 208 931 183 945.5 170.5L960 158L960 91L945.5 100.8C931 110.7 902 130.3 872.8 126.7C843.7 123 814.3 96 785.2 87C756 78 727 87 698 97.8C669 108.7 640 121.3 611 134.8C582 148.3 553 162.7 523.8 170.8C494.7 179 465.3 181 436.2 168.5C407 156 378 129 349 110C320 91 291 80 262 83.5C233 87 204 105 174.8 115.8C145.7 126.7 116.3 130.3 87.2 132.2C58 134 29 134 14.5 134L0 134Z" fill="#5f789d"></path><path d="M0 330L14.5 322.8C29 315.7 58 301.3 87.2 299.7C116.3 298 145.7 309 174.8 304.5C204 300 233 280 262 263.7C291 247.3 320 234.7 349 245.5C378 256.3 407 290.7 436.2 309.7C465.3 328.7 494.7 332.3 523.8 319.7C553 307 582 278 611 269C640 260 669 271 698 270.2C727 269.3 756 256.7 785.2 262C814.3 267.3 843.7 290.7 872.8 291.5C902 292.3 931 270.7 945.5 259.8L960 249L960 156L945.5 168.5C931 181 902 206 872.8 214C843.7 222 814.3 213 785.2 211.2C756 209.3 727 214.7 698 212.8C669 211 640 202 611 207.5C582 213 553 233 523.8 246.5C494.7 260 465.3 267 436.2 251.7C407 236.3 378 198.7 349 183.5C320 168.3 291 175.7 262 195.5C233 215.3 204 247.7 174.8 252.2C145.7 256.7 116.3 233.3 87.2 227C58 220.7 29 231.3 14.5 236.7L0 242Z" fill="#48658f"></path><path d="M0 417L14.5 409.8C29 402.7 58 388.3 87.2 383.8C116.3 379.3 145.7 384.7 174.8 374.7C204 364.7 233 339.3 262 323.2C291 307 320 300 349 311.7C378 323.3 407 353.7 436.2 377.8C465.3 402 494.7 420 523.8 405.7C553 391.3 582 344.7 611 330.3C640 316 669 334 698 338.5C727 343 756 334 785.2 340.3C814.3 346.7 843.7 368.3 872.8 366.5C902 364.7 931 339.3 945.5 326.7L960 314L960 247L945.5 257.8C931 268.7 902 290.3 872.8 289.5C843.7 288.7 814.3 265.3 785.2 260C756 254.7 727 267.3 698 268.2C669 269 640 258 611 267C582 276 553 305 523.8 317.7C494.7 330.3 465.3 326.7 436.2 307.7C407 288.7 378 254.3 349 243.5C320 232.7 291 245.3 262 261.7C233 278 204 298 174.8 302.5C145.7 307 116.3 296 87.2 297.7C58 299.3 29 313.7 14.5 320.8L0 328Z" fill="#3e577c"></path><path d="M0 541L14.5 541C29 541 58 541 87.2 541C116.3 541 145.7 541 174.8 541C204 541 233 541 262 541C291 541 320 541 349 541C378 541 407 541 436.2 541C465.3 541 494.7 541 523.8 541C553 541 582 541 611 541C640 541 669 541 698 541C727 541 756 541 785.2 541C814.3 541 843.7 541 872.8 541C902 541 931 541 945.5 541L960 541L960 312L945.5 324.7C931 337.3 902 362.7 872.8 364.5C843.7 366.3 814.3 344.7 785.2 338.3C756 332 727 341 698 336.5C669 332 640 314 611 328.3C582 342.7 553 389.3 523.8 403.7C494.7 418 465.3 400 436.2 375.8C407 351.7 378 321.3 349 309.7C320 298 291 305 262 321.2C233 337.3 204 362.7 174.8 372.7C145.7 382.7 116.3 377.3 87.2 381.8C58 386.3 29 400.7 14.5 407.8L0 415Z" fill="#354a69"></path></svg>